<?xml version="1.0" encoding="UTF-8"?>
<svg width="2000" height="500" viewBox="-200 0 2000 500" xmlns="http://www.w3.org/2000/svg">
  <path opacity="0.2" d="M-115 196.49C-99.7847 189.038 -80.2199 184.951 -63.5991 179.693C17.1166 154.161 95.1622 124.982 172.656 94.8695C218.955 76.8792 265.309 59.402 313.184 43.6393C313.379 43.5748 340.731 33.1378 337.941 38.7682C330.2 54.3918 313.462 70.6397 302.573 84.9594C253.667 149.279 203.351 213.088 152.851 276.779C120.414 317.687 86.3522 357.929 54.0571 398.891C43.269 412.575 30.9752 425.076 59.4801 409.137C218.384 320.289 367.901 222.412 522.088 129.471C554.558 109.899 587.651 88.9194 624.89 73.8735C643.226 66.4651 630.182 82.3869 626.305 87.4789C612.675 105.382 597.143 122.574 581.742 139.717C574.477 147.803 542.238 178.264 579.148 159.873C649.409 124.864 711.926 82.4285 782.63 47.8385C801.215 38.7462 826.522 26.5449 849.592 22.4753C899.861 13.6079 845.651 75.3908 843.698 78.2407C801.105 140.38 752.71 200.461 710.244 262.669C709.114 264.325 689.059 294.275 687.609 298.279C679.867 319.649 721.458 310.856 734.058 308.525C797.563 296.774 852.102 270.913 907.359 246.88C911.842 244.931 966.639 217.783 951.922 239.154C939.502 257.191 920.54 273.121 904.53 289.544C902.618 291.506 867.577 327.585 887.082 319.107C960.322 287.271 1023.71 240.115 1088.68 200.689C1144.5 166.811 1200.24 132.492 1259.62 101.756C1263.02 99.9965 1290.83 83.018 1285.09 98.3968C1276.59 121.143 1254.46 140.824 1242.17 162.561C1229.69 184.634 1234.65 196.594 1271.41 196.826C1328.94 197.189 1385.77 185.65 1442.12 179.021C1459.33 176.997 1493.61 170.81 1506.01 184.228C1520.18 199.551 1499.59 222.193 1495.4 237.474C1477.66 302.253 1835.84 198.801 1867 190.443" stroke="white" stroke-width="2" stroke-linecap="round" fill="none"/>
</svg>